# xmcd CD database file
#
# Track frame offsets:
#	150
#	22487
#	43575
#	62137
#	80750
#	98762
#	116137
#	135862
#	156775
#	177962
#
# Disc length: 2629 seconds
#
# Revision: 3
# Processed by: cddbd v1.5.2PL0 Copyright (c) Steve Scherf et al.
# Submitted via: CDex 1.51
#
DISCID=850a430a
DTITLE=黎明 - 愛難求
DYEAR=1995
DGENRE=Pop
TTITLE0=一生痴心
TTITLE1=如果我們不再相愛
TTITLE2=在愛堸g路的人
TTITLE3=永遠放在我心中
TTITLE4=深深戀妳
TTITLE5=我為你而來
TTITLE6=真愛一生難求
TTITLE7=明知故愛
TTITLE8=難以分辨
TTITLE9=情歌森林
EXTD=YEAR: 1995
EXTT0=
EXTT1=
EXTT2=
EXTT3=
EXTT4=
EXTT5=
EXTT6=
EXTT7=
EXTT8=
EXTT9=
PLAYORDER=
